<svg width="657" height="1024" viewBox="0 0 657 1024" fill="none" xmlns="http://www.w3.org/2000/svg">
<path d="M257.906 824.544V199.455C257.906 167.24 231.778 141.124 199.547 141.124H70.5946C31.6063 141.124 0 109.532 0 70.562C0 31.5917 31.6063 0 70.5946 0H199.547C309.754 0.000139672 399.095 89.2994 399.095 199.455V824.544C399.095 934.7 309.754 1024 199.547 1024H70.5946C31.6063 1024 0 992.408 0 953.437C0.000403651 914.467 31.6065 882.875 70.5946 882.875H199.547C231.777 882.875 257.906 856.759 257.906 824.544Z" fill="black"/>
<path d="M399.095 199.455V824.544C399.095 856.759 425.222 882.876 457.452 882.876H586.405C625.394 882.876 657 914.468 657 953.438C657 992.408 625.393 1024 586.405 1024H457.452C347.245 1024 257.906 934.7 257.906 824.544V199.455C257.906 89.2994 347.246 0.000763856 457.453 0.000682272L586.405 0.000686673C625.394 0.000688003 657 31.5923 657 70.5627C657 109.533 625.393 141.125 586.405 141.125H457.453C425.222 141.125 399.095 167.24 399.095 199.455Z" fill="black"/>
</svg>
